<svg width="21" height="20" viewBox="0 0 21 20" fill="none" xmlns="http://www.w3.org/2000/svg">
<path d="M10.4952 20C11.8627 20 13.1496 19.7386 14.3558 19.2159C15.5621 18.6996 16.6264 17.98 17.5489 17.0571C18.4713 16.1342 19.1938 15.0694 19.7163 13.8625C20.2388 12.6557 20.5 11.3682 20.5 10C20.5 8.63182 20.2388 7.3443 19.7163 6.13746C19.1938 4.93062 18.4713 3.86899 17.5489 2.95257C16.6264 2.02969 15.5621 1.30687 14.3558 0.784124C13.1496 0.261375 11.8595 0 10.4855 0C9.11796 0 7.83108 0.261375 6.62482 0.784124C5.42501 1.30687 4.36389 2.02969 3.44146 2.95257C2.52548 3.86899 1.80624 4.93062 1.28374 6.13746C0.761248 7.3443 0.5 8.63182 0.5 10C0.5 11.3682 0.761248 12.6557 1.28374 13.8625C1.80624 15.0694 2.52548 16.1342 3.44146 17.0571C4.36389 17.98 5.42824 18.6996 6.63449 19.2159C7.84075 19.7386 9.12764 20 10.4952 20ZM5.76367 10.0097C5.76367 9.72572 5.85398 9.49661 6.03459 9.32236C6.21521 9.14166 6.4442 9.05131 6.72158 9.05131H9.54693V6.22459C9.54693 5.94708 9.63401 5.71797 9.80818 5.53727C9.98234 5.35011 10.2081 5.25653 10.4855 5.25653C10.7693 5.25653 10.9983 5.35011 11.1725 5.53727C11.3531 5.71797 11.4434 5.94708 11.4434 6.22459V9.05131H14.2784C14.5558 9.05131 14.7816 9.14166 14.9557 9.32236C15.1363 9.49661 15.2267 9.72572 15.2267 10.0097C15.2267 10.2872 15.1363 10.5131 14.9557 10.6873C14.7751 10.8616 14.5493 10.9487 14.2784 10.9487H11.4434V13.7851C11.4434 14.0626 11.3531 14.2917 11.1725 14.4724C10.9983 14.6467 10.7693 14.7338 10.4855 14.7338C10.2081 14.7338 9.98234 14.6467 9.80818 14.4724C9.63401 14.2917 9.54693 14.0626 9.54693 13.7851V10.9487H6.72158C6.4442 10.9487 6.21521 10.8616 6.03459 10.6873C5.85398 10.5131 5.76367 10.2872 5.76367 10.0097Z" fill="#008DE4"/>
</svg>
